<?xml version="1.0" standalone="no"?>
<!DOCTYPE svg PUBLIC "-//W3C//DTD SVG 20010904//EN"
 "http://www.w3.org/TR/2001/REC-SVG-20010904/DTD/svg10.dtd">
<svg version="1.0" xmlns="http://www.w3.org/2000/svg"
 width="1024.000000pt" height="1024.000000pt" viewBox="0 0 1024.000000 1024.000000"
 preserveAspectRatio="xMidYMid meet">
<metadata>
Created by potrace 1.16, written by Peter Selinger 2001-2019
</metadata>
<g transform="translate(0.000000,1024.000000) scale(0.100000,-0.100000)"
fill="#000000" stroke="none">
<path d="M5033 9110 c-194 -42 -359 -115 -538 -238 -286 -196 -516 -355 -1225
-848 -878 -609 -865 -601 -1347 -931 -200 -136 -363 -251 -363 -256 0 -6 163
-262 175 -275 2 -2 115 72 252 166 568 388 1075 735 1343 918 157 108 449 309
650 446 201 138 470 322 598 410 245 168 342 222 456 257 145 44 334 47 490 6
71 -19 209 -82 274 -126 26 -17 182 -123 347 -234 165 -112 422 -285 570 -385
149 -100 701 -470 1229 -822 783 -523 961 -637 971 -626 6 7 42 63 80 123 37
61 74 118 82 127 18 21 100 -37 -712 506 l-640 428 -3 407 -2 407 -183 -2
-182 -3 4 -267 c2 -146 0 -271 -3 -277 -7 -10 -281 170 -1041 684 -428 289
-522 339 -745 396 -127 32 -409 37 -537 9z"/>
<path d="M5112 8539 c-98 -26 -174 -66 -307 -158 -152 -107 -355 -247 -660
-456 -426 -292 -764 -525 -857 -589 -140 -98 -461 -318 -773 -531 -159 -108
-307 -213 -327 -233 -74 -71 -69 86 -66 -1927 l3 -1810 27 -98 c32 -116 101
-266 162 -351 48 -68 159 -176 227 -223 63 -43 182 -102 264 -130 151 -51 185
-53 1085 -53 910 1 911 1 1068 58 208 77 379 239 455 433 49 122 57 209 57
585 0 327 1 344 18 344 88 0 339 106 468 198 209 149 407 390 555 677 67 131
75 183 38 244 l-21 34 25 46 c39 71 124 283 162 403 63 200 105 446 105 618 0
98 -23 262 -46 335 -27 84 -101 216 -157 285 -79 94 -224 201 -327 240 -19 7
-40 17 -47 22 -6 5 -62 22 -124 37 l-113 28 -26 49 c-15 28 -45 62 -69 79 -39
27 -50 30 -121 30 -71 0 -82 -3 -121 -30 -164 -115 -97 -379 100 -393 78 -6
125 11 179 65 l45 45 69 -17 c304 -74 504 -261 580 -542 17 -64 20 -107 20
-233 0 -290 -71 -580 -219 -891 -54 -114 -56 -117 -93 -123 -56 -9 -84 -37
-140 -144 -196 -373 -460 -625 -730 -698 -95 -26 -271 -24 -374 4 -242 66
-469 262 -650 561 -31 51 -72 123 -91 161 -38 76 -70 106 -122 116 -34 6 -38
13 -89 118 -148 309 -227 618 -228 896 0 120 4 161 23 235 69 269 254 449 552
535 l77 22 37 -40 c126 -140 360 -66 373 118 5 70 -10 120 -51 166 -49 57 -99
77 -178 72 -88 -5 -143 -40 -179 -114 l-25 -52 -80 -21 c-197 -53 -364 -148
-478 -271 -193 -208 -259 -477 -212 -855 31 -253 131 -570 258 -822 l25 -48
-25 -35 c-36 -51 -26 -98 52 -247 239 -459 527 -728 898 -839 44 -13 88 -24
98 -24 15 0 17 -25 24 -277 4 -152 5 -312 1 -355 -16 -198 -95 -321 -257 -402
-111 -56 -145 -58 -1029 -54 -891 4 -837 0 -999 79 -116 57 -232 171 -284 279
-72 148 -67 4 -67 1950 l0 1755 248 169 c136 92 382 259 547 371 475 322 668
454 1010 689 931 640 882 610 1000 610 44 0 100 -6 124 -13 26 -7 171 -99 357
-224 173 -117 785 -528 1362 -913 l1047 -702 0 -1753 c0 -1965 7 -1786 -72
-1943 -50 -100 -180 -228 -283 -278 -136 -67 -162 -70 -495 -75 l-300 -5 -18
59 c-47 152 -184 312 -329 382 -107 52 -190 71 -308 71 -183 0 -332 -62 -466
-195 -136 -135 -202 -303 -191 -485 11 -175 81 -325 209 -445 130 -122 268
-175 459 -175 258 0 491 136 598 350 23 45 41 89 41 96 0 12 51 14 298 14 229
0 320 4 393 16 231 40 435 153 582 322 97 111 153 217 201 377 20 70 20 78 23
1930 l3 1860 -23 40 c-19 34 -80 79 -382 280 -198 132 -529 355 -735 495 -206
140 -454 308 -550 373 -96 65 -263 178 -370 252 -452 310 -809 546 -861 569
-145 67 -340 85 -487 45z m1406 -6110 c176 -87 224 -297 105 -453 -77 -100
-219 -142 -341 -102 -61 21 -133 81 -169 144 -35 59 -44 185 -19 247 26 61 62
109 109 142 59 42 91 51 178 52 66 1 84 -3 137 -30z"/>
<path d="M6342 2310 c-64 -15 -112 -80 -112 -150 0 -106 100 -181 203 -150 81
24 129 108 108 188 -13 46 -65 99 -112 112 -38 11 -41 11 -87 0z"/>
</g>
</svg>
